<?xml version="1.0" encoding="UTF-8"?>
<svg version="1.1" xmlns="http://www.w3.org/2000/svg" width="1024" height="1024">
<path d="M0 0 C1.06702148 0.03915527 2.13404297 0.07831055 3.23339844 0.11865234 C4.21083008 0.16070801 5.18826172 0.20276367 6.1953125 0.24609375 C7.05398926 0.28275146 7.91266602 0.31940918 8.79736328 0.35717773 C10.875 0.5625 10.875 0.5625 12.875 1.5625 C14.66320352 1.74598017 16.45611315 1.88464507 18.25 2 C27.8085357 2.74141387 36.92765898 4.4909376 46.1953125 6.91015625 C49.02211822 7.64743771 49.02211822 7.64743771 52.5625 8.0625 C56.04220125 8.58773792 59.04426621 9.57955433 62.3515625 10.7421875 C65.18733339 11.66403253 68.03778128 12.36861265 70.9375 13.0625 C75.05986353 14.06312427 78.94377981 15.24172188 82.87890625 16.8125 C85.20273864 17.6856425 87.55266704 18.37394672 89.9375 19.0625 C93.36346659 20.06952654 96.60354169 21.22121116 99.86328125 22.6953125 C102.49922678 23.83158417 105.1853714 24.81003185 107.875 25.8125 C118.58044145 29.90720802 128.9891902 34.7488937 138.875 40.5625 C138.875 41.5525 138.875 42.5425 138.875 43.5625 C138.28332031 43.84222656 137.69164062 44.12195313 137.08203125 44.41015625 C131.3422093 47.32220295 127.98206587 49.86621257 124.875 55.5625 C125.18014048 57.64264371 125.18014048 57.64264371 125.875 59.5625 C125.99875 60.26375 126.1225 60.965 126.25 61.6875 C126.79094861 63.94986729 126.79094861 63.94986729 129.875 65.5625 C134.86027735 66.16182296 137.20754103 65.09071982 141.125 62.0625 C145.70833333 58.5625 145.70833333 58.5625 147.875 58.5625 C147.875 57.9025 147.875 57.2425 147.875 56.5625 C173.05033622 42.73284864 198.13627688 35.84603621 226.59082031 43.82617188 C237.07480782 47.20578991 247.69314714 53.1780311 255.875 60.5625 C255.875 61.2225 255.875 61.8825 255.875 62.5625 C256.535 62.5625 257.195 62.5625 257.875 62.5625 C257.875 63.2225 257.875 63.8825 257.875 64.5625 C259.195 65.2225 260.515 65.8825 261.875 66.5625 C261.875 67.2225 261.875 67.8825 261.875 68.5625 C262.535 68.5625 263.195 68.5625 263.875 68.5625 C265.55496199 70.63223735 267.10189385 72.69351168 268.625 74.875 C269.29716553 75.8340625 269.29716553 75.8340625 269.98291016 76.8125 C283.2984163 96.0721711 287.66987803 118.09824727 284.33203125 141.28515625 C280.18952098 161.92689548 269.16558893 179.17381031 254.8828125 194.37890625 C250.62209025 198.62107675 250.62209025 198.62107675 248.484375 204.01953125 C248.53078125 204.79683594 248.5771875 205.57414063 248.625 206.375 C248.66109375 207.16519531 248.6971875 207.95539063 248.734375 208.76953125 C248.78078125 209.36121094 248.8271875 209.95289063 248.875 210.5625 C252.6911142 212.76410435 255.31935911 212.87308895 259.62109375 212.3203125 C263.06136721 211.16361744 264.63597836 208.95792381 266.68359375 206.05859375 C267.07675781 205.56488281 267.46992187 205.07117188 267.875 204.5625 C268.535 204.5625 269.195 204.5625 269.875 204.5625 C270.13410156 203.99917969 270.39320313 203.43585938 270.66015625 202.85546875 C272.00459275 200.31789889 273.56289695 198.15136526 275.3125 195.875 C275.90933594 195.08738281 276.50617187 194.29976562 277.12109375 193.48828125 C278.875 191.5625 278.875 191.5625 281.875 190.5625 C289.19689961 202.02303076 295.58942659 213.68413201 299.890625 226.6171875 C300.66286616 228.92778209 301.49185889 231.10076185 302.5 233.3125 C304.00718941 236.8749477 305.05635098 240.45552659 306.125 244.16796875 C306.88363208 246.75987754 306.88363208 246.75987754 308.375 249.875 C310.23472203 254.44681667 311.20551894 259.04742273 312.2265625 263.8671875 C312.60342337 266.46495493 312.60342337 266.46495493 313.875 267.5625 C314.50685774 270.65708036 315.05728986 273.7570622 315.59375 276.86914062 C316.34232001 281.06192904 317.27862488 285.14503775 318.375 289.26171875 C320.04430809 295.81201737 320.82074143 302.34710274 321.5 309.0625 C321.73988852 311.3439929 321.98198034 313.6252555 322.2265625 315.90625 C322.32791504 316.89818359 322.42926758 317.89011719 322.53369141 318.91210938 C322.79616204 321.44813421 322.79616204 321.44813421 323.38526917 323.39675903 C323.95918915 325.93481044 324.024482 328.26210494 324.05200195 330.86474609 C324.06466095 331.9297937 324.07731995 332.99484131 324.09036255 334.09216309 C324.09792572 335.24510864 324.10548889 336.3980542 324.11328125 337.5859375 C324.12293915 338.7877063 324.13259705 339.9894751 324.14254761 341.22766113 C324.16746249 345.13097175 324.17995461 349.03411833 324.1875 352.9375 C324.19045074 354.25639221 324.19340149 355.57528442 324.19644165 356.93414307 C324.20800192 379.52704157 323.20674481 400.90184744 317.54663086 422.85644531 C316.71048275 426.22535321 316.12384317 429.57466109 315.5625 433 C312.24466369 451.70910193 306.25743787 470.70803258 298.09765625 487.8671875 C296.20764272 492.033671 294.65818932 496.32251308 293.0859375 500.6171875 C291.875 503.5625 291.875 503.5625 290.4140625 505.9453125 C289.1247766 508.13775298 288.30636278 509.99501253 287.46875 512.3671875 C285.88636634 516.75789007 283.7230917 520.66552115 281.375 524.6875 C278.73832617 529.25599425 276.18245354 533.81447061 273.875 538.5625 C273.215 538.5625 272.555 538.5625 271.875 538.5625 C271.215 540.5425 270.555 542.5225 269.875 544.5625 C269.215 544.5625 268.555 544.5625 267.875 544.5625 C267.7625293 545.14281982 267.65005859 545.72313965 267.53417969 546.32104492 C266.8100144 548.78347511 265.82436886 550.34786611 264.328125 552.42578125 C263.5546875 553.50956055 263.5546875 553.50956055 262.765625 554.61523438 C261.95351562 555.73381836 261.95351562 555.73381836 261.125 556.875 C260.5990625 557.60912109 260.073125 558.34324219 259.53125 559.09960938 C258.48803131 560.55469287 257.44056962 562.0067447 256.38867188 563.45556641 C255.38896879 564.8470886 254.40543906 566.2503908 253.43945312 567.66552734 C252.29777373 569.33068602 251.09215397 570.95168609 249.875 572.5625 C249.215 572.5625 248.555 572.5625 247.875 572.5625 C247.6275 573.284375 247.38 574.00625 247.125 574.75 C245.75230408 577.83856582 244.15146704 580.07261418 241.875 582.5625 C241.215 582.5625 240.555 582.5625 239.875 582.5625 C239.65457031 583.10132813 239.43414063 583.64015625 239.20703125 584.1953125 C237.4294585 587.35428343 235.04009972 589.82499777 232.5625 592.4375 C229.706985 595.47561256 226.88849536 598.5079926 224.25 601.73828125 C222.31506355 604.03920074 220.47740857 605.95266894 218.1875 607.875 C214.01349495 611.42091667 209.99238962 615.11618981 205.9765625 618.83984375 C203.875 620.5625 203.875 620.5625 201.875 620.5625 C201.875 621.2225 201.875 621.8825 201.875 622.5625 C201.215 622.5625 200.555 622.5625 199.875 622.5625 C199.875 623.2225 199.875 623.8825 199.875 624.5625 C198.1953125 626.0703125 198.1953125 626.0703125 196 627.6875 C195.28070312 628.22632813 194.56140625 628.76515625 193.8203125 629.3203125 C191.875 630.5625 191.875 630.5625 189.875 630.5625 C189.875 631.2225 189.875 631.8825 189.875 632.5625 C184.46323529 636.5625 184.46323529 636.5625 181.875 636.5625 C181.875 637.2225 181.875 637.8825 181.875 638.5625 C180.12182617 639.97949219 180.12182617 639.97949219 177.66796875 641.609375 C176.3212207 642.5065625 176.3212207 642.5065625 174.94726562 643.421875 C173.99529297 644.04578125 173.04332031 644.6696875 172.0625 645.3125 C171.15306641 645.9209375 170.24363281 646.529375 169.30664062 647.15625 C163.79225166 650.80393062 158.18953175 654.1314173 152.34570312 657.22412109 C149.90190403 658.5479261 147.54477253 659.96608821 145.1875 661.4375 C140.72409014 664.13998327 136.14695871 666.56981621 131.5 668.9375 C130.80946533 669.29569824 130.11893066 669.65389648 129.4074707 670.02294922 C125.90572751 671.78046834 123.86731875 672.5625 119.875 672.5625 C119.875 673.2225 119.875 673.8825 119.875 674.5625 C118.99199219 674.86542969 118.10898437 675.16835938 117.19921875 675.48046875 C111.38755218 677.50924602 105.69822572 679.55680952 100.125 682.1875 C95.14398191 684.51826794 90.16103335 686.08642929 84.875 687.5625 C76.11382815 690.15396847 76.11382815 690.15396847 67.5 693.1875 C61.15494496 695.59424502 54.86164185 697.01162291 48.1875 698.0625 C47.40310547 698.18995605 46.61871094 698.31741211 45.81054688 698.44873047 C43.4993209 698.82399709 41.18734496 699.19419798 38.875 699.5625 C36.54125537 699.93493179 34.20785001 700.30950496 31.875 700.6875 C30.946875 700.83445312 30.01875 700.98140625 29.0625 701.1328125 C26.84163488 701.46816957 26.84163488 701.46816957 24.875 702.5625 C22.89940132 702.76716634 20.91911189 702.92799059 18.9375 703.0625 C15.64455062 703.2865646 13.01336918 703.51637694 9.875 704.5625 C8.25822379 704.69869391 6.63712509 704.78672755 5.015625 704.84375 C4.06429688 704.88113281 3.11296875 704.91851563 2.1328125 704.95703125 C1.14023437 704.99183594 0.14765625 705.02664063 -0.875 705.0625 C-7.04145836 705.28214957 -13.01341811 705.67802433 -19.125 706.5625 C-21.78273069 706.6529533 -24.4066906 706.7028663 -27.0625 706.6875 C-27.72701172 706.69136719 -28.39152344 706.69523438 -29.07617188 706.69921875 C-33.09786303 706.69141722 -36.95737533 706.35984956 -40.94897461 705.81201172 C-46.19982402 705.20992846 -51.50852054 705.15240054 -56.78710938 704.95703125 C-58.1396582 704.90095703 -58.1396582 704.90095703 -59.51953125 704.84375 C-60.73926636 704.79831055 -60.73926636 704.79831055 -61.98364258 704.75195312 C-64.125 704.5625 -64.125 704.5625 -67.125 703.5625 C-70.21724276 703.25709331 -73.31011719 703.05417689 -76.41015625 702.84375 C-79.125 702.5625 -79.125 702.5625 -81.125 701.5625 C-82.74722205 701.40551077 -84.37321032 701.28652198 -86 701.1875 C-91.15173083 700.75930419 -95.89106939 699.71964806 -100.875 698.3828125 C-104.51738001 697.46346178 -108.18507899 696.7563313 -111.875 696.0625 C-116.51082595 695.15886692 -120.75480039 694.13472342 -125.1015625 692.3125 C-127.7510022 691.3304683 -130.43887628 690.71402562 -133.1875 690.0625 C-137.76169072 688.96332025 -141.81931884 687.47613607 -146.125 685.5625 C-147.64224098 685.13293631 -149.16353764 684.71757265 -150.6875 684.3125 C-155.68708421 682.87322576 -160.11251646 680.66086501 -164.71630859 678.25976562 C-169.82078514 675.62753079 -175.05765787 673.6021118 -180.48046875 671.703125 C-183.02053236 670.60755842 -184.37034401 669.66085149 -186.125 667.5625 C-184.47711268 662.87235915 -184.47711268 662.87235915 -182.5625 661.1875 C-180.25172487 658.57531942 -180.30657483 655.95189683 -180.125 652.5625 C-181.78777915 649.40533201 -181.78777915 649.40533201 -184.5078125 648.76171875 C-187.46900751 648.53631435 -188.48724518 648.86633797 -191 650.375 C-192.15822266 651.06529297 -192.15822266 651.06529297 -193.33984375 651.76953125 C-196.11916184 653.55874163 -198.8644758 655.39085859 -201.60375977 657.24047852 C-217.42356935 667.91781479 -231.34075888 672.88519899 -250.5625 673 C-251.66400391 673.0100708 -252.76550781 673.0201416 -253.90039062 673.03051758 C-260.5644011 672.95929066 -265.9453014 671.99656097 -272.125 669.5625 C-273.300625 669.2325 -274.47625 668.9025 -275.6875 668.5625 C-282.90933469 666.46160263 -288.46446194 664.00436569 -294.4375 659.5 C-295.64179231 658.61309822 -296.84621465 657.72637296 -298.05078125 656.83984375 C-299.06527344 656.08832031 -300.07976562 655.33679688 -301.125 654.5625 C-302.115 653.9025 -303.105 653.2425 -304.125 652.5625 C-304.125 651.9025 -304.125 651.2425 -304.125 650.5625 C-304.74375 650.315 -305.3625 650.0675 -306 649.8125 C-308.47568687 648.35621361 -309.07625002 647.18437494 -310.125 644.5625 C-310.785 644.5625 -311.445 644.5625 -312.125 644.5625 C-313.39013672 643.05297852 -313.39013672 643.05297852 -314.8046875 640.94140625 C-315.58005859 639.78415039 -315.58005859 639.78415039 -316.37109375 638.60351562 C-316.90863281 637.78560547 -317.44617188 636.96769531 -318 636.125 C-318.52980469 635.34189453 -319.05960938 634.55878906 -319.60546875 633.75195312 C-331.03325122 616.52520908 -334.68000048 597.02509117 -330.82421875 576.65234375 C-327.32839868 561.20433437 -327.32839868 561.20433437 -323.125 554.5625 C-322.42920546 552.37119466 -322.42920546 552.37119466 -322.125 550.5625 C-321.465 550.5625 -320.805 550.5625 -320.125 550.5625 C-320.01027344 549.99015625 -319.89554688 549.4178125 -319.77734375 548.828125 C-319.06317644 546.34778344 -318.05192128 544.49881303 -316.6875 542.3125 C-316.03974609 541.25289062 -316.03974609 541.25289062 -315.37890625 540.171875 C-314.96511719 539.64078125 -314.55132812 539.1096875 -314.125 538.5625 C-313.465 538.5625 -312.805 538.5625 -312.125 538.5625 C-311.91875 537.881875 -311.7125 537.20125 -311.5 536.5 C-309.69604973 532.64610625 -307.2239655 529.48462236 -304.125 526.5625 C-303.465 526.5625 -302.805 526.5625 -302.125 526.5625 C-301.8743981 525.14946762 -301.65038079 523.73170526 -301.4375 522.3125 C-301.24607422 521.12914062 -301.24607422 521.12914062 -301.05078125 519.921875 C-301.14809186 516.82842195 -301.9079422 515.69373621 -304.125 513.5625 C-307.55130067 512.58612411 -310.66478824 512.78711718 -314.125 513.5625 C-317.05109449 515.45417437 -319.01403236 517.81464675 -321.125 520.5625 C-321.70636719 521.30371094 -322.28773438 522.04492188 -322.88671875 522.80859375 C-324.33573659 524.70346324 -325.74533586 526.61681981 -327.125 528.5625 C-329.390625 528.3984375 -329.390625 528.3984375 -332.125 527.5625 C-334.046875 525.2890625 -334.046875 525.2890625 -335.875 522.1875 C-336.20862549 521.62168213 -336.54225098 521.05586426 -336.88598633 520.47290039 C-346.48511896 503.7726745 -353.59574702 485.63586947 -360.125 467.5625 C-360.37926758 466.86382813 -360.63353516 466.16515625 -360.89550781 465.4453125 C-365.05426748 453.90435808 -367.95850476 442.26281481 -370.51171875 430.27246094 C-371.16008491 427.40746715 -371.91183319 424.58050328 -372.66796875 421.7421875 C-374.31481031 415.2354615 -375.07552753 408.73058007 -375.75 402.0625 C-375.98988852 399.7810071 -376.23198034 397.4997445 -376.4765625 395.21875 C-376.57791504 394.22681641 -376.67926758 393.23488281 -376.78369141 392.21289062 C-377.04319273 389.68106684 -377.04319273 389.68106684 -377.63725281 387.75933838 C-378.23896737 385.0491851 -378.2599516 382.53973608 -378.27026367 379.76269531 C-378.27664352 378.59337463 -378.28302338 377.42405396 -378.28959656 376.21929932 C-378.29070938 374.95583679 -378.2918222 373.69237427 -378.29296875 372.390625 C-378.29629715 371.08027283 -378.29962555 369.76992065 -378.30305481 368.41986084 C-378.309043 365.63911112 -378.31089549 362.85839243 -378.31030273 360.07763672 C-378.31022204 357.25563061 -378.31707051 354.43378876 -378.33081055 351.61181641 C-378.50330088 315.69740264 -378.50330088 315.69740264 -375.125 305.5625 C-374.99492151 304.08538649 -374.89540858 302.60551035 -374.8125 301.125 C-374.33753452 295.47818823 -373.34752552 289.98971809 -372.25 284.4375 C-372.08846436 283.6029126 -371.92692871 282.7683252 -371.76049805 281.90844727 C-370.75911957 276.97061548 -369.46060998 272.27423767 -367.75537109 267.53198242 C-366.99013237 265.33277265 -366.99013237 265.33277265 -366.625 262 C-366.14202346 258.67953632 -365.18712801 255.90532004 -363.9453125 252.80078125 C-363.00403474 250.23243764 -362.31303098 247.64710865 -361.625 245 C-360.4760805 240.64368022 -358.92870243 236.69598473 -357.125 232.5625 C-356.65159465 230.96271642 -356.194465 229.35806437 -355.75 227.75 C-354.45063937 223.25637781 -352.59393519 219.35820689 -350.42578125 215.2265625 C-349.05013593 212.4091748 -347.9946298 209.57599838 -346.9375 206.625 C-343.80548435 198.21272718 -339.47359201 190.42676763 -335.19067383 182.55444336 C-334.13136878 180.57440444 -333.119848 178.57558098 -332.125 176.5625 C-331.465 176.5625 -330.805 176.5625 -330.125 176.5625 C-329.99971924 175.97388184 -329.87443848 175.38526367 -329.74536133 174.77880859 C-328.75688285 171.24736129 -326.71940204 168.28735996 -324.8125 165.1875 C-324.42126953 164.54039062 -324.03003906 163.89328125 -323.62695312 163.2265625 C-319.54526766 156.51174993 -315.11949891 150.13466301 -310.375 143.875 C-306.02472994 138.12257678 -301.77304351 132.32340631 -297.6484375 126.40625 C-297.14570313 125.7978125 -296.64296875 125.189375 -296.125 124.5625 C-295.465 124.5625 -294.805 124.5625 -294.125 124.5625 C-293.88910156 124.00820313 -293.65320313 123.45390625 -293.41015625 122.8828125 C-291.8123545 119.99802758 -289.80648991 117.85077968 -287.5625 115.4375 C-284.48780814 112.24742491 -284.48780814 112.24742491 -282.125 108.5625 C-281.465 108.5625 -280.805 108.5625 -280.125 108.5625 C-280.125 107.9025 -280.125 107.2425 -280.125 106.5625 C-279.465 106.5625 -278.805 106.5625 -278.125 106.5625 C-278.125 105.9025 -278.125 105.2425 -278.125 104.5625 C-277.465 104.5625 -276.805 104.5625 -276.125 104.5625 C-276.125 103.9025 -276.125 103.2425 -276.125 102.5625 C-275.465 102.5625 -274.805 102.5625 -274.125 102.5625 C-274.125 101.9025 -274.125 101.2425 -274.125 100.5625 C-273.465 100.5625 -272.805 100.5625 -272.125 100.5625 C-272.125 99.9025 -272.125 99.2425 -272.125 98.5625 C-271.465 98.5625 -270.805 98.5625 -270.125 98.5625 C-270.125 97.9025 -270.125 97.2425 -270.125 96.5625 C-269.465 96.5625 -268.805 96.5625 -268.125 96.5625 C-268.125 95.9025 -268.125 95.2425 -268.125 94.5625 C-267.465 94.5625 -266.805 94.5625 -266.125 94.5625 C-266.125 93.9025 -266.125 93.2425 -266.125 92.5625 C-259.64378477 85.63356924 -251.29469372 79.9327656 -243.89697266 73.99853516 C-242.35217965 72.74661004 -240.83555383 71.46008647 -239.32421875 70.16796875 C-237.125 68.5625 -237.125 68.5625 -234.125 68.5625 C-234.125 67.9025 -234.125 67.2425 -234.125 66.5625 C-231.72014261 64.75811745 -229.32234637 63.0830742 -226.8125 61.4375 C-226.12220703 60.96957031 -225.43191406 60.50164062 -224.72070312 60.01953125 C-223.72006836 59.35630859 -223.72006836 59.35630859 -222.69921875 58.6796875 C-222.08651123 58.27347168 -221.47380371 57.86725586 -220.8425293 57.44873047 C-219.125 56.5625 -219.125 56.5625 -216.125 56.5625 C-216.125 55.9025 -216.125 55.2425 -216.125 54.5625 C-209.05967572 50.67123069 -201.954503 46.85888753 -194.81762695 43.10083008 C-191.10224168 41.14387767 -187.39701024 39.17185788 -183.7109375 37.16015625 C-176.26004595 33.11386068 -168.96550827 29.46674277 -160.95703125 26.6328125 C-158.04235447 25.58800172 -158.04235447 25.58800172 -155.0703125 24.0234375 C-152.4274224 22.71250793 -150.02253725 21.83443883 -147.1875 21.0625 C-144.21664174 20.2149446 -141.58642235 19.32313216 -138.75 18.0625 C-134.57247793 16.33387018 -130.40936159 15.35327594 -126.01953125 14.30859375 C-123.69312694 13.70894028 -121.58900144 13.03318241 -119.375 12.125 C-110.11670662 8.4566196 -100.01039884 6.41468956 -90.125 5.5625 C-89.465 5.2325 -88.805 4.9025 -88.125 4.5625 C-86.49668079 4.28626243 -84.8608998 4.05324633 -83.22265625 3.84375 C-82.25005859 3.71613281 -81.27746094 3.58851563 -80.27539062 3.45703125 C-79.25638672 3.32683594 -78.23738281 3.19664062 -77.1875 3.0625 C-75.17803791 2.80477851 -73.16890489 2.54447451 -71.16015625 2.28125 C-70.2669165 2.16716797 -69.37367676 2.05308594 -68.45336914 1.93554688 C-65.9774335 1.60340193 -65.9774335 1.60340193 -63.125 0.5625 C-60.14047334 0.32051135 -57.17731332 0.13479121 -54.1875 0 C-53.2687207 -0.0417334 -52.34994141 -0.0834668 -51.40332031 -0.12646484 C-34.27563765 -0.8219044 -17.12623919 -0.64491072 0 0 Z M-23.125 72.5625 C-21.98614716 75.97905852 -20.65860403 77.06548231 -18.125 79.5625 C-16.88213352 81.24587611 -15.67379214 82.95525168 -14.5 84.6875 C-12.79671908 87.19407499 -11.26853028 89.41896972 -9.125 91.5625 C-7.9619089 87.58860541 -7.97298667 85.90300985 -9.6875 82.0625 C-12.09428964 78.33612569 -14.71713027 75.41398283 -18.125 72.5625 C-20.88074568 72.05700706 -20.88074568 72.05700706 -23.125 72.5625 Z " fill="#020102" transform="translate(534.125,163.4375)"/>
<path d="M0 0 C0.78922852 0.17192871 1.57845703 0.34385742 2.39160156 0.52099609 C18.71399909 4.12444682 34.01562232 8.51166517 49 16 C49.91652344 16.44835205 49.91652344 16.44835205 50.8515625 16.90576172 C65.69951376 24.20732073 78.9884174 33.62639523 91 45 C92.39034614 46.21464306 93.78595562 47.42329559 95.1875 48.625 C98.96537916 51.92495469 102.53801173 55.37049617 106 59 C106.77730469 59.80244141 106.77730469 59.80244141 107.5703125 60.62109375 C123.41371522 77.80391457 136.04666047 99.71874936 143 122 C143.38212646 123.21187988 143.38212646 123.21187988 143.77197266 124.44824219 C145.68109587 130.59103888 147.39881032 136.77027511 149 143 C149.27336182 144.02818848 149.27336182 144.02818848 149.55224609 145.07714844 C154.9841677 166.27515496 153.43213534 191.7586139 149 213 C148.76651855 214.14637939 148.76651855 214.14637939 148.52832031 215.31591797 C138.83106085 261.00530112 111.16171893 299.31048375 73.5 326.125 C72.81220459 326.61597168 72.12440918 327.10694336 71.41577148 327.61279297 C62.66183221 333.77056573 53.71796867 338.85052027 43.875 343.0625 C42.87090088 343.4944165 41.86680176 343.92633301 40.83227539 344.37133789 C28.23429731 349.70229721 15.48997861 353.58158933 2 356 C1.10200684 356.16991455 0.20401367 356.3398291 -0.72119141 356.51489258 C-9.83131319 358.10261621 -18.78628155 358.36010166 -28 358.3125 C-28.77034576 358.31001251 -29.54069153 358.30752502 -30.3343811 358.30496216 C-67.13279939 358.12162484 -101.97393489 347.63343361 -132 326 C-133.02222656 325.26394531 -134.04445313 324.52789063 -135.09765625 323.76953125 C-168.81830839 298.90673379 -195.18906104 262.18359588 -204.53076172 221.00976562 C-204.85022675 219.64148459 -205.19131682 218.27811367 -205.55126953 216.91992188 C-211.70906528 193.62127963 -211.94770414 164.41117586 -206 141 C-205.82307617 140.29262695 -205.64615234 139.58525391 -205.46386719 138.85644531 C-204.16920738 133.83656401 -202.64395112 128.91528367 -201 124 C-200.79036621 123.35530762 -200.58073242 122.71061523 -200.36474609 122.04638672 C-185.54030121 77.04809099 -151.5056726 39.18278009 -110 17 C-77.19262877 0.74258136 -36.25669663 -7.94388297 0 0 Z " fill="#FDFDFD" transform="translate(536,336)"/>
<path d="M0 0 C1.1127832 -0.01836914 1.1127832 -0.01836914 2.24804688 -0.03710938 C9.93914575 -0.05729599 16.71884097 1.15360776 22.8125 6.1875 C28.58512946 12.77492644 31.35442387 18.42283955 31.19921875 27.26953125 C30.31936728 33.90841052 26.51920627 40.48079373 21.8125 45.1875 C16.36481716 48.8632962 12.17909403 49.84728609 5.6875 50.25 C3.89944174 50.39747384 2.1116843 50.5486329 0.32421875 50.703125 C-0.58924316 50.77982422 -1.50270508 50.85652344 -2.44384766 50.93554688 C-49.46818788 55.25385254 -92.71250808 71.46090471 -130.1875 100.1875 C-131.04214844 100.82816406 -131.89679688 101.46882813 -132.77734375 102.12890625 C-173.27102871 133.32454042 -200.29358244 179.0266956 -212 228.375 C-212.29011963 229.58502686 -212.58023926 230.79505371 -212.87915039 232.04174805 C-215.75384151 244.63325118 -217.28926343 257.04950796 -217.390625 269.95703125 C-217.39728683 270.78071701 -217.40394867 271.60440277 -217.41081238 272.45304871 C-217.43092527 275.82014297 -217.44387888 279.18638102 -217.41748047 282.5534668 C-217.35397256 293.2361119 -217.62705415 302.17118544 -224.1875 311.1875 C-229.9058531 316.8316851 -235.59860201 319.22662132 -243.625 319.5 C-250.98550047 319.33067861 -256.20400091 316.8080239 -261.61328125 311.93359375 C-267.31165543 305.61306457 -268.34202074 298.43222258 -268.35546875 290.22265625 C-268.35974884 289.44174118 -268.36402893 288.66082611 -268.36843872 287.85624695 C-268.37845359 285.32077335 -268.37848625 282.7854897 -268.375 280.25 C-268.37406342 279.38548218 -268.37312683 278.52096436 -268.37216187 277.63024902 C-268.34173052 264.72436026 -268.16940026 251.96650108 -266.1875 239.1875 C-266.03684082 238.21055176 -265.88618164 237.23360352 -265.73095703 236.22705078 C-254.02592626 163.44447233 -212.37823754 96.94281511 -153.1875 53.1875 C-109.3213904 21.72807208 -54.589752 0.0481816 0 0 Z M13.8125 5.1875 C14.95135284 8.60405852 16.27889597 9.69048231 18.8125 12.1875 C20.05536648 13.87087611 21.26370786 15.58025168 22.4375 17.3125 C24.14078092 19.81907499 25.66896972 22.04396972 27.8125 24.1875 C28.9755911 20.21360541 28.96451333 18.52800985 27.25 14.6875 C24.84321036 10.96112569 22.22036973 8.03898283 18.8125 5.1875 C16.05675432 4.68200706 16.05675432 4.68200706 13.8125 5.1875 Z " fill="#FCFCFC" transform="translate(497.1875,230.8125)"/>
<path d="M0 0 C2.5625 1.609375 2.5625 1.609375 5 3.75 C6.40958984 4.96429687 6.40958984 4.96429687 7.84765625 6.203125 C8.8991318 7.13463354 9.94987142 8.06697323 11 9 C13.47454747 11.17197377 15.95520216 13.33689075 18.4375 15.5 C19.0773584 16.05888916 19.7172168 16.61777832 20.37646484 17.19360352 C25.12240687 21.31153013 29.99550999 25.13133422 35.0703125 28.83984375 C38.10394946 31.0766454 41.04634676 33.40887281 44 35.75 C61.68156209 49.47119393 81.94483709 62.58030755 103.15234375 69.99609375 C106.07397273 71.02607818 108.85781718 72.24107989 111.6875 73.5 C125.75943005 79.38328399 141.01885219 82.43086516 156 85 C157.03116943 85.18095215 158.06233887 85.3619043 159.12475586 85.54833984 C168.48913559 87.05322195 177.60889914 87.31489592 187.0625 87.25 C187.82503082 87.2478952 188.58756165 87.24579041 189.37319946 87.24362183 C202.36577017 87.20164507 215.16087322 86.4786518 228.04199219 84.72143555 C238.59775752 83.31698202 250.64831128 81.92585552 260 88 C262.40322255 90.1162706 264.22357321 92.34415401 266 95 C266.61875 95.886875 267.2375 96.77375 267.875 97.6875 C270.50070272 105.41873578 269.70884651 113.38201611 266.31640625 120.74609375 C261.99721624 128.14126478 256.15106513 131.78638586 248 134 C200.5786652 144.52714279 147.77499466 140.59781337 102 125 C101.18708496 124.72349609 100.37416992 124.44699219 99.53662109 124.16210938 C76.31628167 116.10523813 48.91429243 105.43877232 30.04663086 89.33251953 C27.41763693 87.62083531 26.09246876 87.55888691 23 88 C20.33930098 89.18123518 20.33930098 89.18123518 17.67578125 90.89453125 C16.65532715 91.51553711 15.63487305 92.13654297 14.58349609 92.77636719 C13.50406738 93.44829102 12.42463867 94.12021484 11.3125 94.8125 C10.20213379 95.49086914 9.09176758 96.16923828 7.94775391 96.86816406 C4.62478733 98.90091382 1.31108582 100.94796683 -2 103 C-4.61308003 104.61624007 -7.22662528 106.23165658 -9.84301758 107.8425293 C-11.31632803 108.75123099 -12.78647062 109.66509843 -14.25268555 110.58520508 C-20.5450171 114.48563853 -26.34228487 117.94042116 -34 117 C-41.18064653 114.65301825 -45.71570422 110.04943343 -49.375 103.5625 C-52.42430578 91.06034629 -44.6408667 77.80733707 -39.69592285 66.60906982 C-38.25921445 63.35548608 -36.83772053 60.09524734 -35.4140625 56.8359375 C-34.98196472 55.8483696 -34.98196472 55.8483696 -34.5411377 54.84085083 C-31.71741314 48.37740874 -28.98140191 41.87792011 -26.25 35.375 C-24.50491446 31.2479042 -22.75293629 27.12376583 -21 23 C-20.58202148 22.01064453 -20.16404297 21.02128906 -19.73339844 20.00195312 C-18.54522387 17.20305883 -17.33828146 14.41308593 -16.125 11.625 C-15.77985352 10.80435059 -15.43470703 9.98370117 -15.07910156 9.13818359 C-11.81869172 1.74781608 -8.66812881 -2.43791123 0 0 Z " fill="#FCFCFC" transform="translate(315,659)"/>
<path d="M0 0 C1.16546392 0.71911604 2.31430516 1.46650311 3.4375 2.25 C4.324375 2.78625 5.21125 3.3225 6.125 3.875 C14.54177086 12.51925116 14.22408807 22.56702819 14.1022644 33.92263794 C14.08258102 35.35311966 14.08258102 35.35311966 14.0625 36.8125 C14.05574249 37.78508759 14.04898499 38.75767517 14.04202271 39.75973511 C13.58756809 95.72527606 -3.66037368 154.8220137 -38.5625 199.25 C-39.10777344 199.97316406 -39.65304687 200.69632813 -40.21484375 201.44140625 C-55.16916979 221.11074332 -72.16071066 239.91496126 -91.5625 255.25 C-93.41686882 256.81226009 -95.2710349 258.37476084 -97.125 259.9375 C-107.78978311 268.66461865 -116.60445883 273.33831262 -130.5625 272.25 C-136.11929814 271.05206707 -140.91008677 267.51837841 -144.5625 263.25 C-148.65516555 256.69348794 -151.16906256 249.97074668 -149.5625 242.25 C-146.63746728 233.95354356 -142.56985145 228.41633958 -135.5625 223.25 C-133.51928319 221.68947602 -131.47766888 220.12699444 -129.4375 218.5625 C-128.60557129 217.92731445 -128.60557129 217.92731445 -127.75683594 217.27929688 C-111.47994259 204.79570802 -95.90909171 190.69659197 -83.5625 174.25 C-83.16901367 173.72760742 -82.77552734 173.20521484 -82.37011719 172.66699219 C-51.94132771 131.99249963 -37.50268826 83.85865511 -37.10620117 33.35546875 C-37.08444171 31.01788052 -37.04507894 28.68106556 -37.00390625 26.34375 C-37.00379044 25.6477771 -37.00367462 24.9518042 -37.0035553 24.23474121 C-36.84935128 16.50649456 -34.11091146 8.77160754 -28.5625 3.25 C-20.51802465 -2.80629703 -9.2414366 -4.38487823 0 0 Z " fill="#FCFCFC" transform="translate(772.5625,481.75)"/>
<path d="M0 0 C4.42528861 2.80886583 7.24808363 4.88721132 8.76953125 10.1171875 C10.59943194 24.11176892 4.05536348 35.31601334 -4.23046875 46.1171875 C-19.70515447 65.38910612 -40.31983765 77.32520507 -64.23046875 83.1171875 C-65.3747937 83.39864624 -65.3747937 83.39864624 -66.54223633 83.68579102 C-73.18879594 85.17882505 -79.61988451 85.46568656 -86.41796875 85.4296875 C-87.51931152 85.42477295 -88.6206543 85.4198584 -89.75537109 85.41479492 C-98.27018432 85.29279723 -106.00866338 84.46087455 -114.23046875 82.1171875 C-115.45507812 81.776875 -116.6796875 81.4365625 -117.94140625 81.0859375 C-132.23849508 76.72311452 -144.03181315 70.02926616 -155.23046875 60.1171875 C-155.92398437 59.56675781 -156.6175 59.01632812 -157.33203125 58.44921875 C-168.19700567 49.68365174 -180.24623164 34.27967076 -181.86328125 19.9765625 C-182.06810129 13.01268128 -181.76968825 8.6425133 -177.23046875 3.1171875 C-172.83990165 -0.19511834 -169.37098824 -0.55658784 -163.9921875 -0.4375 C-157.44742652 0.52756341 -151.43296806 3.01203532 -145.25390625 5.3046875 C-127.0282015 12.02269471 -107.63587531 14.71370111 -88.29296875 14.5546875 C-87.10214691 14.55012543 -87.10214691 14.55012543 -85.88726807 14.54547119 C-64.18455306 14.42359147 -43.70508216 11.49069693 -23.23046875 4.1171875 C-21.11699245 3.37505444 -19.00142141 2.64027248 -16.88183594 1.91577148 C-15.05972234 1.29080736 -13.2443732 0.64621507 -11.4296875 0 C-7.32545275 -1.1325483 -4.01755651 -1.5901362 0 0 Z " fill="#030202" transform="translate(594.23046875,546.8828125)"/>
<path d="M0 0 C4.90834974 2.77358148 8.2094356 7.17912835 10.37109375 12.33984375 C10.70703125 14.56640625 10.70703125 14.56640625 10.74609375 16.96484375 C10.77445313 17.74085938 10.8028125 18.516875 10.83203125 19.31640625 C9.35957534 28.97471875 3.67385592 37.6881745 -0.94140625 46.15234375 C-1.5870877 47.34543312 -2.23227211 48.53879163 -2.87695312 49.73242188 C-3.83730543 51.51002291 -4.79914702 53.28671408 -5.76638794 55.06057739 C-7.38062938 58.02109055 -8.97402315 60.98970689 -10.52880859 63.98193359 C-11.13289551 65.13516113 -11.73698242 66.28838867 -12.359375 67.4765625 C-12.89328857 68.50869873 -13.42720215 69.54083496 -13.97729492 70.60424805 C-16.62265927 74.98581605 -19.26682953 77.50907552 -24.04296875 79.33984375 C-24.88730469 79.66984375 -25.73164062 79.99984375 -26.6015625 80.33984375 C-27.91447266 80.83484375 -27.91447266 80.83484375 -29.25390625 81.33984375 C-30.53201172 81.83484375 -30.53201172 81.83484375 -31.8359375 82.33984375 C-33.57693414 83.01411779 -35.31923743 83.68502641 -37.06274414 84.3527832 C-43.35032847 86.77126893 -49.58445165 89.31820589 -55.81048584 91.89016724 C-58.89140779 93.16014573 -61.97653197 94.41971907 -65.06225586 95.67797852 C-66.65916814 96.33198333 -68.25420775 96.99057804 -69.84741211 97.65356445 C-72.17212238 98.61979814 -74.50309839 99.56921643 -76.8359375 100.515625 C-77.5443428 100.81447098 -78.25274811 101.11331696 -78.98262024 101.42121887 C-83.04910345 103.0491914 -85.42214736 103.39310743 -89.62890625 102.33984375 C-89.72164337 93.16901526 -89.7926898 83.99834853 -89.83615494 74.82715321 C-89.85701757 70.56843805 -89.88531056 66.31004402 -89.93066406 62.05151367 C-89.97416976 57.94069455 -89.99805332 53.83018405 -90.00841522 49.71915245 C-90.01579818 48.15185374 -90.03021561 46.58457166 -90.05182648 45.01740456 C-90.08092477 42.81958327 -90.08485979 40.62303218 -90.08300781 38.42504883 C-90.09189026 37.17484451 -90.10077271 35.9246402 -90.10992432 34.6365509 C-89.54067517 30.73514292 -88.36663009 29.12004718 -85.62890625 26.33984375 C-83.45605469 25.01269531 -83.45605469 25.01269531 -80.98828125 23.98046875 C-80.01568359 23.56732422 -79.04308594 23.15417969 -78.04101562 22.72851562 C-76.91501953 22.27025391 -75.78902344 21.81199219 -74.62890625 21.33984375 C-73.29862479 20.78890216 -71.9685584 20.23744109 -70.63867188 19.68554688 C-66.06189022 17.79590092 -61.47164478 15.94030706 -56.87890625 14.08984375 C-56.06508484 13.76168671 -55.25126343 13.43352966 -54.41278076 13.09542847 C-51.12045734 11.76828815 -47.82781827 10.44194928 -44.53390503 9.11875916 C-39.79569653 7.21530987 -35.06531047 5.29422761 -30.33984375 3.359375 C-28.31148083 2.53966416 -26.28286004 1.72059095 -24.25390625 0.90234375 C-23.35961914 0.53141602 -22.46533203 0.16048828 -21.54394531 -0.22167969 C-13.69418406 -3.3511628 -7.79937507 -3.33580578 0 0 Z " fill="#FCFCFC" transform="translate(746.62890625,266.66015625)"/>
<path d="M0 0 C7.70461378 5.93897312 14.11832869 12.46857137 16 22.3125 C16.88111867 34.46038194 15.88287165 44.1499873 7.75 53.6875 C-0.3875656 62.11951699 -9.04358237 66.09372283 -20.75 66.625 C-29.70998035 66.50391918 -37.54488424 62.36584507 -44 56.3125 C-51.31776369 48.26002108 -54.58061589 41.33722417 -54.5 30.5 C-54.49427979 29.6121582 -54.48855957 28.72431641 -54.48266602 27.80957031 C-54.29581397 20.96210344 -53.20675086 15.86455698 -49 10.3125 C-48.49210937 9.6009375 -47.98421875 8.889375 -47.4609375 8.15625 C-35.86162518 -6.57652583 -15.83746059 -8.90857158 0 0 Z " fill="#030202" transform="translate(448,437.6875)"/>
<path d="M0 0 C8.54809429 5.87935487 14.20545089 14.02308034 17 24 C18.16343682 34.53857305 16.2910985 43.69378237 10.125 52.375 C4.98860675 58.65139075 -0.56506582 62.06658052 -8 65 C-8.94875 65.4125 -9.8975 65.825 -10.875 66.25 C-19.53761046 68.32902651 -27.21455523 67.2706566 -35 63 C-44.894973 56.67554315 -51.30004521 48.52382937 -54 37 C-55.38633395 26.47940967 -53.14656826 17.84437574 -47.015625 9.203125 C-35.51705339 -4.5788509 -16.06293153 -8.89871324 0 0 Z " fill="#030203" transform="translate(606,437)"/>
<path d="M0 0 C8.29524896 3.08109247 13.26412665 7.39100213 17.16796875 15.39453125 C18.10972718 18.34360577 18.19940217 20.72480974 18.125 23.8125 C18.10695313 24.78832031 18.08890625 25.76414062 18.0703125 26.76953125 C18.04710937 27.50558594 18.02390625 28.24164063 18 29 C17.67 29 17.34 29 17 29 C16.97421875 28.3709375 16.9484375 27.741875 16.921875 27.09375 C16.35125358 18.48255396 13.95322194 12.10743341 7.59375 6.12109375 C5.18883207 4.42939903 2.88808541 4.13752788 0 4 C-0.33 3.01 -0.66 2.02 -1 1 C-0.67 0.67 -0.34 0.34 0 0 Z " fill="#CFCFD0" transform="translate(510,232)"/>
<path d="M0 0 C0.66 0.33 1.32 0.66 2 1 C1.01 2.485 1.01 2.485 0 4 C-0.66 4 -1.32 4 -2 4 C-1.67 4.99 -1.34 5.98 -1 7 C-4 10 -7 13 -10 16 C-10.66 15.34 -11.32 14.68 -12 14 C-10.41332422 10.09714233 -7.86649519 7.66479018 -4.875 4.75 C-3.96492187 3.85796875 -3.05484375 2.9659375 -2.1171875 2.046875 C-1.41851563 1.37140625 -0.71984375 0.6959375 0 0 Z " fill="#090708" transform="translate(640,635)"/>
<path d="M0 0 C0.99 1.32 1.98 2.64 3 4 C2.67 4.99 2.34 5.98 2 7 C0.68 6.67 -0.64 6.34 -2 6 C-1.67 8.31 -1.34 10.62 -1 13 C-2.97746603 13.73080266 -4.98072489 14.39421747 -7 15 C-7.66 14.67 -8.32 14.34 -9 14 C-6.03 9.38 -3.06 4.76 0 0 Z " fill="#EAECEC" transform="translate(361,409)"/>
<path d="M0 0 C0.93423645 3.01031744 1.04449911 3.86650268 0 7 C-0.33 6.34 -0.66 5.68 -1 5 C-1.66 5 -2.32 5 -3 5 C-3.33 5.66 -3.66 6.32 -4 7 C-4.66 7.66 -5.32 8.32 -6 9 C-5.01 9.33 -4.02 9.66 -3 10 C-4.36125 10.433125 -4.36125 10.433125 -5.75 10.875 C-8.34106299 11.77190642 -10.57933743 12.75062577 -13 14 C-14.66140763 14.67966676 -16.32700041 15.34938905 -18 16 C-14.25333462 12.14044075 -10.31478678 8.63380746 -6.1875 5.1875 C-5.59001953 4.68541016 -4.99253906 4.18332031 -4.37695312 3.66601562 C-2.91971152 2.44193268 -1.46010135 1.22067038 0 0 Z " fill="#E7E9E8" transform="translate(663,684)"/>
<path d="M0 0 C3 2 3 2 3.6875 4.125 C3.8421875 5.053125 3.8421875 5.053125 4 6 C3.01 6.33 2.02 6.66 1 7 C-0.20882096 9.00016466 -0.20882096 9.00016466 -1 11 C-1.66 10.67 -2.32 10.34 -3 10 C-2.67 9.01 -2.34 8.02 -2 7 C-3.65 7.66 -5.3 8.32 -7 9 C-5.64978174 4.58110387 -3.73884332 2.65654657 0 0 Z " fill="#0F1110" transform="translate(815,354)"/>
<path d="M0 0 C1 3 1 3 0.25 5.0625 C-1 7 -1 7 -4 9 C-3.67 9.66 -3.34 10.32 -3 11 C-3.66 11 -4.32 11 -5 11 C-5.33 12.32 -5.66 13.64 -6 15 C-9.75 16.125 -9.75 16.125 -12 15 C-11.21753906 14.08476563 -10.43507813 13.16953125 -9.62890625 12.2265625 C-8.60666469 11.02613205 -7.58453507 9.82560626 -6.5625 8.625 C-6.04623047 8.02171875 -5.52996094 7.4184375 -4.99804688 6.796875 C-2.21367706 3.59551296 -2.21367706 3.59551296 0 0 Z " fill="#E8EAEA" transform="translate(691,653)"/>
<path d="M0 0 C1.4606285 2.64738916 2 3.89448334 2 7 C1.3125 9.125 1.3125 9.125 0 11 C-2.79597286 11.86029934 -5.07171074 12 -8 12 C-7.50628906 11.30132813 -7.01257813 10.60265625 -6.50390625 9.8828125 C-5.86324219 8.97273437 -5.22257813 8.06265625 -4.5625 7.125 C-3.92441406 6.22007812 -3.28632812 5.31515625 -2.62890625 4.3828125 C-1.00481862 2.12261419 -1.00481862 2.12261419 0 0 Z " fill="#E9ECEC" transform="translate(702,637)"/>
<path d="M0 0 C0 3 0 3 -2 6 C-2 6.99 -2 7.98 -2 9 C-4.8125 11.0625 -4.8125 11.0625 -8 13 C-8.99 13.66 -9.98 14.32 -11 15 C-11 10.66825307 -8.34177417 8.77646347 -5.5 5.8125 C-4.97535156 5.25369141 -4.45070313 4.69488281 -3.91015625 4.11914062 C-2.61338387 2.73984636 -1.30753741 1.36909356 0 0 Z " fill="#171616" transform="translate(719,699)"/>
<path d="M0 0 C0.82638376 2.89234315 1 4.88742431 1 8 C-0.093125 8.28875 -1.18625 8.5775 -2.3125 8.875 C-6.04013845 9.81893204 -6.04013845 9.81893204 -9 12 C-7.54718935 6.67302761 -3.91888622 3.63597198 0 0 Z " fill="#161616" transform="translate(566,439)"/>
<path d="M0 0 C0 3 0 3 -2 6 C-1.34 6 -0.68 6 0 6 C-0.66 7.65 -1.32 9.3 -2 11 C-2.99 11 -3.98 11 -5 11 C-5.66 9.68 -6.32 8.36 -7 7 C-4.69 4.69 -2.38 2.38 0 0 Z " fill="#E9ECEB" transform="translate(671,676)"/>
<path d="M0 0 C5.75 1.75 5.75 1.75 8 4 C7.34 4.66 6.68 5.32 6 6 C6.99 6.33 7.98 6.66 9 7 C9 7.66 9 8.32 9 9 C8.01 9.33 7.02 9.66 6 10 C4.99421411 8.71283353 3.99553202 7.42011342 3 6.125 C2.443125 5.40570312 1.88625 4.68640625 1.3125 3.9453125 C0 2 0 2 0 0 Z " fill="#131212" transform="translate(419,582)"/>
<path d="M0 0 C-0.99 0.33 -1.98 0.66 -3 1 C-3 1.66 -3 2.32 -3 3 C-4.96147874 4.38938077 -6.96166576 5.7260411 -9 7 C-10.32 6.34 -11.64 5.68 -13 5 C-5.16 -1.72 -5.16 -1.72 0 0 Z " fill="#E8EBEA" transform="translate(757,481)"/>
<path d="M0 0 C0.66 1.32 1.32 2.64 2 4 C-1.54039134 6.9156164 -5.1626772 9.50127818 -9 12 C-7.55575365 8.76138697 -5.74227753 6.38030837 -3.375 3.75 C-2.74335938 3.04359375 -2.11171875 2.3371875 -1.4609375 1.609375 C-0.97882813 1.07828125 -0.49671875 0.5471875 0 0 Z " fill="#E4E8E7" transform="translate(373,395)"/>
<path d="M0 0 C0.66 0 1.32 0 2 0 C2.33 1.65 2.66 3.3 3 5 C1.02 5.99 1.02 5.99 -1 7 C-1 8.98 -1 10.96 -1 13 C-2.32 12.67 -3.64 12.34 -5 12 C-3.68938409 7.76570244 -2.05643741 3.92592596 0 0 Z " fill="#E7E8E8" transform="translate(716,611)"/>
<path d="M0 0 C1.65 0.33 3.3 0.66 5 1 C4.67 2.98 4.34 4.96 4 7 C4.66 7.33 5.32 7.66 6 8 C3 8 3 8 0.3125 5.5 C-0.450625 4.675 -1.21375 3.85 -2 3 C-1.34 2.01 -0.68 1.02 0 0 Z " fill="#E8E8E8" transform="translate(449,434)"/>
<path d="M0 0 C-3.46741134 2.95749791 -6.86873527 5.07848152 -11 7 C-11.33 6.01 -11.66 5.02 -12 4 C-4.71428571 -0.57142857 -4.71428571 -0.57142857 0 0 Z " fill="#3A3B3D" transform="translate(331,821)"/>
<path d="M0 0 C0.78375 0.04125 1.5675 0.0825 2.375 0.125 C0.7919423 4.3992558 -2.13068404 6.39031794 -5.625 9.125 C-4.6356383 0.22074468 -4.6356383 0.22074468 0 0 Z " fill="#494949" transform="translate(766.625,751.875)"/>
<path d="M0 0 C0.99 0.99 1.98 1.98 3 3 C0.69 4.98 -1.62 6.96 -4 9 C-4 6.33333333 -4 3.66666667 -4 1 C-2.1875 0.3125 -2.1875 0.3125 0 0 Z " fill="#EEEEEE" transform="translate(637,633)"/>
<path d="M0 0 C1.74627478 2.61941217 2.38722388 4.03824877 3 7 C1.68 7.99 0.36 8.98 -1 10 C-1.66 7.69 -2.32 5.38 -3 3 C-2.34 3 -1.68 3 -1 3 C-0.67 2.01 -0.34 1.02 0 0 Z " fill="#100E0F" transform="translate(676,440)"/>
<path d="M0 0 C0.99 0.66 1.98 1.32 3 2 C1.8141763 5.37503669 0.72426311 7.64722731 -2 10 C-3.0625 7.625 -3.0625 7.625 -4 5 C-3.67 4.34 -3.34 3.68 -3 3 C-2.34 3 -1.68 3 -1 3 C-0.67 2.01 -0.34 1.02 0 0 Z " fill="#323335" transform="translate(789,721)"/>
<path d="M0 0 C-0.34879632 3.25543229 -1.02133261 4.01873107 -3.5625 6.25 C-4.366875 6.8275 -5.17125 7.405 -6 8 C-6 7.34 -6 6.68 -6 6 C-6.66 5.67 -7.32 5.34 -8 5 C-5.72541886 1.64228499 -4.30291326 0 0 0 Z " fill="#F2F2F2" transform="translate(720,696)"/>
<path d="M0 0 C0.66 1.32 1.32 2.64 2 4 C1.01 5.32 0.02 6.64 -1 8 C-1.66 7.67 -2.32 7.34 -3 7 C-3.66 7 -4.32 7 -5 7 C-5.33 6.01 -5.66 5.02 -6 4 C-4.02 2.68 -2.04 1.36 0 0 Z " fill="#E9EAEA" transform="translate(350,280)"/>
<path d="M0 0 C-1.485 2.475 -1.485 2.475 -3 5 C-4.98 4.34 -6.96 3.68 -9 3 C-9 3.66 -9 4.32 -9 5 C-10.32 4.34 -11.64 3.68 -13 3 C-11.21189234 2.30329584 -9.41937948 1.61788811 -7.625 0.9375 C-6.62726563 0.55464844 -5.62953125 0.17179688 -4.6015625 -0.22265625 C-2 -1 -2 -1 0 0 Z " fill="#D7DAD9" transform="translate(418,247)"/>
<path d="M0 0 C0.33 1.32 0.66 2.64 1 4 C-0.64666203 3.8864371 -2.29236082 3.75882619 -3.9375 3.625 C-4.85402344 3.55539062 -5.77054687 3.48578125 -6.71484375 3.4140625 C-7.84599609 3.20910156 -7.84599609 3.20910156 -9 3 C-9.33 2.34 -9.66 1.68 -10 1 C-6.61981469 -0.04005702 -3.5219721 -0.08004482 0 0 Z " fill="#E4EAEA" transform="translate(478,337)"/>
<path d="M0 0 C1.32 0.33 2.64 0.66 4 1 C2.02 3.31 0.04 5.62 -2 8 C-2.66 7.67 -3.32 7.34 -4 7 C-4 6.01 -4 5.02 -4 4 C-3.34 4 -2.68 4 -2 4 C-2 3.34 -2 2.68 -2 2 C-1.34 2 -0.68 2 0 2 C0 1.34 0 0.68 0 0 Z " fill="#0D0D0D" transform="translate(260,264)"/>
<path d="M0 0 C1.65 1.65 3.3 3.3 5 5 C4.34 6.32 3.68 7.64 3 9 C-1 4.375 -1 4.375 -1 1 C-0.67 0.67 -0.34 0.34 0 0 Z " fill="#100E0F" transform="translate(579,747)"/>
<path d="M0 0 C1.32 0.66 2.64 1.32 4 2 C3.34 3.65 2.68 5.3 2 7 C0.35 7 -1.3 7 -3 7 C-1.125 1.125 -1.125 1.125 0 0 Z " fill="#0A090A" transform="translate(277,712)"/>
<path d="M0 0 C0.33 1.32 0.66 2.64 1 4 C1.33 3.34 1.66 2.68 2 2 C2.99 2.33 3.98 2.66 5 3 C4.1875 4.9375 4.1875 4.9375 3 7 C0 8 0 8 -2.1875 7.0625 C-2.785625 6.711875 -3.38375 6.36125 -4 6 C-2.68 4.02 -1.36 2.04 0 0 Z " fill="#171516" transform="translate(739,672)"/>
<path d="M0 0 C-0.33 0.99 -0.66 1.98 -1 3 C-1.99 2.67 -2.98 2.34 -4 2 C-4.33 2.99 -4.66 3.98 -5 5 C-5.99 4.67 -6.98 4.34 -8 4 C-7.6875 2.0625 -7.6875 2.0625 -7 0 C-3.86650268 -1.04449911 -3.01031744 -0.93423645 0 0 Z " fill="#110F10" transform="translate(241,546)"/>
<path d="M0 0 C0.99 0.66 1.98 1.32 3 2 C2.58789699 7.25431335 1.7645482 10.2354518 -2 14 C-2.99 14.33 -3.98 14.66 -5 15 C-3.91200404 12.74031609 -2.79525229 10.70075335 -1.375 8.625 C0.24504005 5.53219627 0.24020057 3.44287486 0 0 Z " fill="#D5D4D4" transform="translate(354,814)"/>
<path d="M0 0 C0 2.95274099 -0.43891831 4.49058403 -1.5 7.1875 C-1.7784375 7.90292969 -2.056875 8.61835937 -2.34375 9.35546875 C-2.5603125 9.89816406 -2.776875 10.44085937 -3 11 C-4.52194825 8.58278807 -5.01261321 7.26487742 -4.875 4.375 C-4 2 -4 2 -1.9375 0.6875 C-1.298125 0.460625 -0.65875 0.23375 0 0 Z " fill="#464648" transform="translate(823,669)"/>
<path d="M0 0 C0.66 0.66 1.32 1.32 2 2 C1.34 2.66 0.68 3.32 0 4 C0 4.66 0 5.32 0 6 C-1.5 7.625 -1.5 7.625 -3 9 C-3.99 8.67 -4.98 8.34 -6 8 C-4.55746343 4.63408134 -2.66735273 2.48952921 0 0 Z " fill="#121111" transform="translate(579,782)"/>
<path d="M0 0 C2.25 0.25 2.25 0.25 4 1 C4 1.66 4 2.32 4 3 C3.34 3 2.68 3 2 3 C2 3.66 2 4.32 2 5 C0.02 5.99 0.02 5.99 -2 7 C-2.66 6.01 -3.32 5.02 -4 4 C-2.25 1.9375 -2.25 1.9375 0 0 Z " fill="#100E0F" transform="translate(699,720)"/>
<path d="M0 0 C0.99 0.33 1.98 0.66 3 1 C3 2.32 3 3.64 3 5 C2.34 5 1.68 5 1 5 C0.67 6.32 0.34 7.64 0 9 C-1.125 7.3125 -1.125 7.3125 -2 5 C-1.125 2.25 -1.125 2.25 0 0 Z " fill="#F2F5F4" transform="translate(693,651)"/>
<path d="M0 0 C1.65 0 3.3 0 5 0 C5.99 2.31 6.98 4.62 8 7 C7.01 7 6.02 7 5 7 C0 1.53488372 0 1.53488372 0 0 Z " fill="#E6E6E6" transform="translate(232,537)"/>
<path d="M0 0 C1.15227823 0.76116551 2.2966386 1.53432693 3.4375 2.3125 C4.07558594 2.74175781 4.71367188 3.17101562 5.37109375 3.61328125 C7 5 7 5 8 8 C6.68 8.33 5.36 8.66 4 9 C0 2.25 0 2.25 0 0 Z " fill="#E5E5E5" transform="translate(774,483)"/>
<path d="M0 0 C-0.33 2.31 -0.66 4.62 -1 7 C-1.99 7 -2.98 7 -4 7 C-4.66 6.34 -5.32 5.68 -6 5 C-3.74193548 0 -3.74193548 0 0 0 Z " fill="#0B0A0A" transform="translate(757,296)"/>
<path d="M0 0 C0.66 0.33 1.32 0.66 2 1 C1.67 2.98 1.34 4.96 1 7 C-2 7 -2 7 -5 5 C-3.35 3.35 -1.7 1.7 0 0 Z " fill="#E2E5E4" transform="translate(590,592)"/>
<path d="M0 0 C0.556875 0.391875 1.11375 0.78375 1.6875 1.1875 C0.3675 2.1775 -0.9525 3.1675 -2.3125 4.1875 C-2.3125 3.5275 -2.3125 2.8675 -2.3125 2.1875 C-2.9725 2.1875 -3.6325 2.1875 -4.3125 2.1875 C-4.6425 2.8475 -4.9725 3.5075 -5.3125 4.1875 C-7.375 5.3125 -7.375 5.3125 -9.3125 6.1875 C-8.2566902 3.40400144 -7.30731748 2.18340854 -4.9375 0.3125 C-2.3125 -0.8125 -2.3125 -0.8125 0 0 Z " fill="#1A1B1B" transform="translate(424.3125,547.8125)"/>
<path d="M0 0 C0 3.15081975 -0.27898465 4.41847698 -2 7 C-4 7.8125 -4 7.8125 -6 8 C-6.66 7.67 -7.32 7.34 -8 7 C-5.36 4.69 -2.72 2.38 0 0 Z " fill="#E6E7E6" transform="translate(397,372)"/>
<path d="M0 0 C1.65 0.33 3.3 0.66 5 1 C0.375 5.875 0.375 5.875 -3 7 C-2.67 5.35 -2.34 3.7 -2 2 C-1.34 2 -0.68 2 0 2 C0 1.34 0 0.68 0 0 Z " fill="#ECEAEB" transform="translate(371,322)"/>
<path d="M0 0 C0.66 0 1.32 0 2 0 C2.144375 0.598125 2.28875 1.19625 2.4375 1.8125 C2.8872439 3.56150404 3.42892341 5.28677023 4 7 C3.01 7.495 3.01 7.495 2 8 C0.62437146 6.71034824 -0.70766393 5.37310707 -2 4 C-2 3.34 -2 2.68 -2 2 C-1.34 2 -0.68 2 0 2 C0 1.34 0 0.68 0 0 Z " fill="#0D0E0D" transform="translate(268,256)"/>
<path d="M0 0 C3.96 1.98 3.96 1.98 8 4 C6.625 6 6.625 6 5 8 C4.34 8 3.68 8 3 8 C2.814375 7.13375 2.814375 7.13375 2.625 6.25 C1.97456503 3.62994613 1.97456503 3.62994613 0 0 Z " fill="#141414" transform="translate(358,756)"/>
<path d="M0 0 C0.99 1.32 1.98 2.64 3 4 C1.35 5.65 -0.3 7.3 -2 9 C-2.6875 7.3125 -2.6875 7.3125 -3 5 C-1.5625 2.25 -1.5625 2.25 0 0 Z " fill="#111413" transform="translate(691,647)"/>
<path d="M0 0 C0.66 0.66 1.32 1.32 2 2 C0.68 3.32 -0.64 4.64 -2 6 C-3.32 5.34 -4.64 4.68 -6 4 C-4 1 -4 1 -2 0.1875 C-1.34 0.125625 -0.68 0.06375 0 0 Z " fill="#ECECEC" transform="translate(398,649)"/>
<path d="M0 0 C0.66 0.33 1.32 0.66 2 1 C0.35 2.65 -1.3 4.3 -3 6 C-5.475 5.01 -5.475 5.01 -8 4 C-5.31143836 2.20762558 -3.0466145 1.01553817 0 0 Z " fill="#E1E5E5" transform="translate(714,271)"/>
<path d="M0 0 C1.98 0 3.96 0 6 0 C5.01 0.495 5.01 0.495 4 1 C4 1.66 4 2.32 4 3 C2.02 3.99 0.04 4.98 -2 6 C-1.49396008 3.83125748 -1.00016187 2.00032373 0 0 Z " fill="#464746" transform="translate(712,799)"/>
<path d="M0 0 C3.875 0.875 3.875 0.875 5 2 C5.04063832 3.66617115 5.042721 5.33388095 5 7 C3.02 5.35 1.04 3.7 -1 2 C-0.67 1.34 -0.34 0.68 0 0 Z " fill="#E5E5E5" transform="translate(376,635)"/>
<path d="M0 0 C2.125 0.375 2.125 0.375 4 1 C4 2.65 4 4.3 4 6 C2.125 5.6875 2.125 5.6875 0 5 C-0.66 4.01 -1.32 3.02 -2 2 C-1.34 1.34 -0.68 0.68 0 0 Z " fill="#F4F4F4" transform="translate(371,627)"/>
<path d="M0 0 C2.72426311 2.35277269 3.8141763 4.62496331 5 8 C4.34 8 3.68 8 3 8 C2.67 8.66 2.34 9.32 2 10 C0.39644899 6.49223216 -0.22036864 3.85645121 0 0 Z " fill="#1A1B1A" transform="translate(457,447)"/>
<path d="M0 0 C0.66 0 1.32 0 2 0 C4 3 4 3 3.625 5.6875 C3.41875 6.450625 3.2125 7.21375 3 8 C0.52557871 5.84832931 -0.56238367 4.28212246 -1 1 C-0.67 0.67 -0.34 0.34 0 0 Z " fill="#171616" transform="translate(666,426)"/>
<path d="M0 0 C0.99 0.66 1.98 1.32 3 2 C2.34 3.32 1.68 4.64 1 6 C-1.97 5.505 -1.97 5.505 -5 5 C-3.35 3.35 -1.7 1.7 0 0 Z " fill="#E7E9E8" transform="translate(405,366)"/>
<path d="M0 0 C0.99 0.99 1.98 1.98 3 3 C2.67 3.66 2.34 4.32 2 5 C-2.455 4.01 -2.455 4.01 -7 3 C-7 2.67 -7 2.34 -7 2 C-4.69 1.34 -2.38 0.68 0 0 Z " fill="#1C1E1E" transform="translate(561,338)"/>
<path d="M0 0 C2.475 0.99 2.475 0.99 5 2 C4 4 4 4 0.9375 5.125 C-0.5165625 5.558125 -0.5165625 5.558125 -2 6 C-2.33 5.01 -2.66 4.02 -3 3 C-2.01 2.01 -1.02 1.02 0 0 Z " fill="#454746" transform="translate(666,826)"/>
<path d="M0 0 C1.32 0.66 2.64 1.32 4 2 C-0.75 6 -0.75 6 -3 6 C-3.33 5.01 -3.66 4.02 -4 3 C-2.68 2.01 -1.36 1.02 0 0 Z " fill="#EBEBEB" transform="translate(663,745)"/>
<path d="M0 0 C1.32 0.66 2.64 1.32 4 2 C1.03 4.475 1.03 4.475 -2 7 C-2 3.89448334 -1.4606285 2.64738916 0 0 Z " fill="#E6E5E6" transform="translate(628,642)"/>
<path d="M0 0 C0.66 0.33 1.32 0.66 2 1 C1.01 2.485 1.01 2.485 0 4 C-0.66 4 -1.32 4 -2 4 C-2.33 4.99 -2.66 5.98 -3 7 C-5.0625 8.6875 -5.0625 8.6875 -7 10 C-7 7 -7 7 -5.46875 5.17578125 C-4.8190625 4.56089844 -4.169375 3.94601562 -3.5 3.3125 C-2.8503125 2.68988281 -2.200625 2.06726563 -1.53125 1.42578125 C-0.77328125 0.72001953 -0.77328125 0.72001953 0 0 Z " fill="#171616" transform="translate(640,635)"/>
<path d="M0 0 C-1.32 1.65 -2.64 3.3 -4 5 C-4.66 4.34 -5.32 3.68 -6 3 C-6.99 2.34 -7.98 1.68 -9 1 C-3.375 -1.125 -3.375 -1.125 0 0 Z " fill="#E7E8E8" transform="translate(550,625)"/>
<path d="M0 0 C0.66 0 1.32 0 2 0 C2 0.66 2 1.32 2 2 C2.66 2.33 3.32 2.66 4 3 C2.02 4.32 0.04 5.64 -2 7 C-2.66 5.68 -3.32 4.36 -4 3 C-2.68 3 -1.36 3 0 3 C0 2.01 0 1.02 0 0 Z " fill="#EFEFEF" transform="translate(404,437)"/>
<path d="M0 0 C0.66 1.32 1.32 2.64 2 4 C1.34 4.66 0.68 5.32 0 6 C0 5.34 0 4.68 0 4 C-0.99 4 -1.98 4 -3 4 C-3.33 5.32 -3.66 6.64 -4 8 C-4.33 7.01 -4.66 6.02 -5 5 C-3.52652887 2.61438008 -2.52264461 1.26132231 0 0 Z " fill="#F0F2F1" transform="translate(262,383)"/>
<path d="M0 0 C0.66 0.66 1.32 1.32 2 2 C1.67 2.66 1.34 3.32 1 4 C0.34 4 -0.32 4 -1 4 C-1.33 4.66 -1.66 5.32 -2 6 C-3.66666667 6 -5.33333333 6 -7 6 C-4.69 4.02 -2.38 2.04 0 0 Z " fill="#191819" transform="translate(693,726)"/>
<path d="M0 0 C-1.75 4.875 -1.75 4.875 -4 6 C-4.66 4.02 -5.32 2.04 -6 0 C-3.50907189 -1.24546405 -2.58919267 -0.7767578 0 0 Z " fill="#E8E8E8" transform="translate(624,449)"/>
<path d="M0 0 C1.98 0.99 3.96 1.98 6 3 C5.67 3.66 5.34 4.32 5 5 C3.02 5 1.04 5 -1 5 C-0.67 3.35 -0.34 1.7 0 0 Z " fill="#E8E8E8" transform="translate(590,355)"/>
<path d="M0 0 C0.66 0.33 1.32 0.66 2 1 C1.01 2.485 1.01 2.485 0 4 C-0.33 4.99 -0.66 5.98 -1 7 C-2.65 5.35 -4.3 3.7 -6 2 C-5.38125 1.855625 -4.7625 1.71125 -4.125 1.5625 C-1.96741678 1.06847775 -1.96741678 1.06847775 0 0 Z " fill="#1B191A" transform="translate(340,673)"/>
<path d="M0 0 C0.99 0.66 1.98 1.32 3 2 C0.69 3.65 -1.62 5.3 -4 7 C-4 4 -4 4 -2 1.8125 C-1.34 1.214375 -0.68 0.61625 0 0 Z " fill="#E5E5E5" transform="translate(269,541)"/>
<path d="M0 0 C0.99 0 1.98 0 3 0 C1.9024777 2.99324263 1.32317108 3.84610901 -1.625 5.25 C-2.40875 5.4975 -3.1925 5.745 -4 6 C-2.84826645 3.53199953 -1.95216435 1.95216435 0 0 Z " fill="#E5E7E6" transform="translate(297,328)"/>
<path d="M0 0 C1.5 1.375 1.5 1.375 3 3 C3 3.66 3 4.32 3 5 C1.02 5.99 1.02 5.99 -1 7 C-1.66 5.68 -2.32 4.36 -3 3 C-2.01 2.01 -1.02 1.02 0 0 Z " fill="#0A0C0B" transform="translate(340,281)"/>
<path d="M0 0 C2.31 0.33 4.62 0.66 7 1 C4.03312999 2.64826111 1.34373475 3.44271087 -2 4 C-1.34 2.68 -0.68 1.36 0 0 Z " fill="#48494B" transform="translate(616,848)"/>
<path d="M0 0 C1.67542976 0.28604898 3.34385343 0.61781233 5 1 C4.67 1.99 4.34 2.98 4 4 C1.9375 4.6875 1.9375 4.6875 0 5 C-0.5625 3.0625 -0.5625 3.0625 -1 1 C-0.67 0.67 -0.34 0.34 0 0 Z " fill="#EDEBEC" transform="translate(571,747)"/>
<path d="M0 0 C0.99 0.33 1.98 0.66 3 1 C2.01 2.98 1.02 4.96 0 7 C-0.66 7 -1.32 7 -2 7 C-2.125 4.625 -2.125 4.625 -2 2 C-1.34 1.34 -0.68 0.68 0 0 Z " fill="#111413" transform="translate(626,712)"/>
<path d="M0 0 C1.32 1.32 2.64 2.64 4 4 C3.01 4.495 3.01 4.495 2 5 C1.34 4.67 0.68 4.34 0 4 C-0.66 5.32 -1.32 6.64 -2 8 C-2.33 7.34 -2.66 6.68 -3 6 C-2.06553465 3.96855359 -1.06775224 1.96466413 0 0 Z " fill="#0F0D0E" transform="translate(364,624)"/>
<path d="M0 0 C2.52588702 2.36292656 3.88820837 3.66462511 5 7 C4.01 7.33 3.02 7.66 2 8 C0.74335022 5.09399739 0 3.20395416 0 0 Z " fill="#E1E1E1" transform="translate(648,403)"/>
<path d="M0 0 C1.98 1.65 3.96 3.3 6 5 C5.01 5.99 4.02 6.98 3 8 C0 3.375 0 3.375 0 0 Z " fill="#E3E3E3" transform="translate(619,374)"/>
<path d="M0 0 C0.66 0.33 1.32 0.66 2 1 C2 1.99 2 2.98 2 4 C0.35 4.33 -1.3 4.66 -3 5 C-3.66 4.01 -4.32 3.02 -5 2 C-2.625 0.9375 -2.625 0.9375 0 0 Z " fill="#DDE2E2" transform="translate(672,288)"/>
<path d="M0 0 C0.66 0.33 1.32 0.66 2 1 C1.8125 2.8125 1.8125 2.8125 1 5 C-1.5625 6.75 -1.5625 6.75 -4 8 C-2.66666667 5.33333333 -1.33333333 2.66666667 0 0 Z " fill="#0F0F0F" transform="translate(333,288)"/>
<path d="M0 0 C2.50037734 2.17424117 3.43628586 3.73045798 4 7 C3.01 7.33 2.02 7.66 1 8 C0.40267181 5.23735711 0 2.83967231 0 0 Z " fill="#E2E0E1" transform="translate(752,272)"/>
<path d="M0 0 C0.66 0 1.32 0 2 0 C1.67 1.65 1.34 3.3 1 5 C-0.32 5.33 -1.64 5.66 -3 6 C-1.125 1.125 -1.125 1.125 0 0 Z " fill="#E9E7E8" transform="translate(692,722)"/>
<path d="M0 0 C0.99 0 1.98 0 3 0 C2.67 0.66 2.34 1.32 2 2 C1.8509288 4.0745356 1.8509288 4.0745356 3 6 C1.68 6.33 0.36 6.66 -1 7 C-2 4 -2 4 -1.0625 1.8125 C-0.5365625 0.9153125 -0.5365625 0.9153125 0 0 Z " fill="#E5E6E8" transform="translate(298,673)"/>
<path d="M0 0 C0.99 0.33 1.98 0.66 3 1 C2.67 2.65 2.34 4.3 2 6 C0.68 6.33 -0.64 6.66 -2 7 C-1.34 4.69 -0.68 2.38 0 0 Z " fill="#212020" transform="translate(769,614)"/>
<path d="M0 0 C2 1 2 1 3 3 C1.02 3.99 -0.96 4.98 -3 6 C-3 3 -3 3 -1.5 1.3125 C-0.7575 0.6628125 -0.7575 0.6628125 0 0 Z " fill="#131514" transform="translate(407,361)"/>
<path d="M0 0 C2.31 0.66 4.62 1.32 7 2 C4.38058783 3.74627478 2.96175123 4.38722388 0 5 C0 3.35 0 1.7 0 0 Z " fill="#070A0B" transform="translate(421,240)"/>
<path d="M0 0 C0.33 1.32 0.66 2.64 1 4 C-0.9375 6.25 -0.9375 6.25 -3 8 C-3.66 7.67 -4.32 7.34 -5 7 C-3.35 4.69 -1.7 2.38 0 0 Z " fill="#E4E6E6" transform="translate(699,642)"/>
<path d="M0 0 C0.66 0.33 1.32 0.66 2 1 C0.625 2.5 0.625 2.5 -1 4 C-1.66 4 -2.32 4 -3 4 C-3.33 4.99 -3.66 5.98 -4 7 C-4.99 6.34 -5.98 5.68 -7 5 C-4.69 3.35 -2.38 1.7 0 0 Z " fill="#DBDDDC" transform="translate(571,610)"/>
<path d="M0 0 C0.66 1.32 1.32 2.64 2 4 C0.35 5.32 -1.3 6.64 -3 8 C-1.125 2.25 -1.125 2.25 0 0 Z " fill="#DEE2E0" transform="translate(740,490)"/>
<path d="M0 0 C1.32 1.65 2.64 3.3 4 5 C3.01 5.66 2.02 6.32 1 7 C0.01 5.02 -0.98 3.04 -2 1 C-1.34 0.67 -0.68 0.34 0 0 Z " fill="#EDEEED" transform="translate(459,445)"/>
<path d="M0 0 C0.33 0.66 0.66 1.32 1 2 C0.06694014 4.71435596 -0.62673377 5.78043163 -3.125 7.25 C-3.74375 7.4975 -4.3625 7.745 -5 8 C-3.8141763 4.62496331 -2.72426311 2.35277269 0 0 Z " fill="#1C1C1C" transform="translate(404,442)"/>
<path d="M0 0 C0.99 1.32 1.98 2.64 3 4 C1 5 -1 6 -3 7 C-1.125 2.25 -1.125 2.25 0 0 Z " fill="#151515" transform="translate(315,386)"/>
<path d="M0 0 C0.99 0.99 1.98 1.98 3 3 C2.01 3.99 1.02 4.98 0 6 C-0.66 4.68 -1.32 3.36 -2 2 C-1.34 1.34 -0.68 0.68 0 0 Z " fill="#EDEDED" transform="translate(318,376)"/>
<path d="M0 0 C-2.05233685 2.2477975 -3.00667261 3.0022242 -6 4 C-6 3.34 -6 2.68 -6 2 C-6.66 1.67 -7.32 1.34 -8 1 C-3.375 -1.125 -3.375 -1.125 0 0 Z " fill="#232122" transform="translate(667,369)"/>
<path d="M0 0 C0 0.66 0 1.32 0 2 C-2.8125 3.5625 -2.8125 3.5625 -6 5 C-6.99 4.67 -7.98 4.34 -9 4 C-6.43425105 1.43425105 -3.68548192 0 0 0 Z " fill="#D3D8D7" transform="translate(696,279)"/>
</svg>
